<?xml version="1.0" encoding="UTF-8" standalone="no"?>
<svg
   xmlns:dc="http://purl.org/dc/elements/1.1/"
   xmlns:cc="http://creativecommons.org/ns#"
   xmlns:rdf="http://www.w3.org/1999/02/22-rdf-syntax-ns#"
   xmlns:svg="http://www.w3.org/2000/svg"
   xmlns="http://www.w3.org/2000/svg"
   xmlns:sodipodi="http://sodipodi.sourceforge.net/DTD/sodipodi-0.dtd"
   xmlns:inkscape="http://www.inkscape.org/namespaces/inkscape"
   version="1.1"
   id="svg2"
   xml:space="preserve"
   width="455"
   height="455"
   viewBox="0 0 455 455"
   sodipodi:docname="logo.svg"
   inkscape:version="1.0.2-2 (e86c870879, 2021-01-15)"><metadata
     id="metadata8"><rdf:RDF><cc:Work
         rdf:about=""><dc:format>image/svg+xml</dc:format><dc:type
           rdf:resource="http://purl.org/dc/dcmitype/StillImage" /><dc:title></dc:title></cc:Work></rdf:RDF></metadata><defs
     id="defs6" /><sodipodi:namedview
     pagecolor="#fde82e"
     bordercolor="#666666"
     borderopacity="1"
     objecttolerance="10"
     gridtolerance="10"
     guidetolerance="10"
     inkscape:pageopacity="0"
     inkscape:pageshadow="2"
     inkscape:window-width="1920"
     inkscape:window-height="1057"
     id="namedview4"
     inkscape:document-rotation="0"
     showgrid="false"
     units="px"
     width="9000mm"
     height="500px"
     fit-margin-top="0"
     fit-margin-left="0"
     fit-margin-right="0"
     fit-margin-bottom="0"
     inkscape:zoom="2.7889185"
     inkscape:cx="235.21014"
     inkscape:cy="208.91341"
     inkscape:window-x="1072"
     inkscape:window-y="496"
     inkscape:window-maximized="1"
     inkscape:current-layer="g10" /><g
     id="g10"
     inkscape:groupmode="layer"
     inkscape:label="Logo Ai"
     transform="matrix(1.3333333,0,0,-1.3333333,0,1440)"><g
       id="g14"
       transform="matrix(1.6385156,0,0,1.5958342,207.35715,1043.078)"><path
         d="M 0,0 -8.021,-29 H -113.03 V 0 Z"
         style="fill:#fde82e;fill-opacity:1;fill-rule:nonzero;stroke:none"
         id="path16" /></g><g
       id="g18"
       transform="matrix(1.6385156,0,0,1.5958342,316.38397,1043.078)"><path
         d="m 0,0 v -29 h -63.15 l 8.019,29 z"
         style="fill:#fde82e;fill-opacity:1;fill-rule:nonzero;stroke:none"
         id="path20" /></g><g
       id="g22"
       transform="matrix(1.6385156,0,0,1.5958342,69.672196,931.81673)"><path
         d="m 0,0 -17.86,-21.62 -5.9,-7.151 H -29 v 29 H 0.19 Z"
         style="fill:#fde82e;fill-opacity:1;fill-rule:nonzero;stroke:none"
         id="path24" /></g><g
       id="g26"
       transform="matrix(1.6385156,0,0,1.5958342,316.38397,932.18298)"><path
         d="m 0,0 v -29 h -150.57 v 0.14 h -9.38 l 9.38,11.35 14.46,17.51 z"
         style="fill:#fde82e;fill-opacity:1;fill-rule:nonzero;stroke:none"
         id="path28" /></g><g
       id="g30"
       transform="matrix(1.6385156,0,0,1.5958342,69.672196,996.79862)"><path
         d="M 0,0 H -24.24 L 0,-7.6 v -33.12 l -17.86,-21.62 -5.9,-7.15 H -29 V 29 H 0 Z"
         style="fill:#fde82e;fill-opacity:1;fill-rule:nonzero;stroke:none"
         id="path32" /></g><g
       id="g34"
       transform="matrix(1.6385156,0,0,1.5958342,54.303087,886.12735)"><path
         d="M 0,0 9.38,11.35 V 0 Z"
         style="fill:#fde82e;fill-opacity:1;fill-rule:nonzero;stroke:none"
         id="path36" /></g><path
       d="m 316.39004,964.49096 h -47.51695 v 78.58704 h 47.51695 z"
       style="fill:#fde82e;fill-opacity:1;fill-rule:nonzero;stroke:none;stroke-width:1.61703"
       id="path38" /><g
       id="g40"
       transform="matrix(1.6385156,0,0,1.5958342,190.36559,821.28879)"><path
         d="m 0,0 -23.96,-29 h -78.7 V 0 Z"
         style="fill:#fde82e;fill-opacity:1;fill-rule:nonzero;stroke:none"
         id="path42"/></g><g
       id="g44"
       transform="matrix(1.6385156,0,0,1.5958342,316.38397,821.28879)"><path
         d="m 0,0 v -29 h -86.601 l 23.96,29 z"
         style="fill:#fde82e;fill-opacity:1;fill-rule:nonzero;stroke:none"
         id="path46" /></g><g
       id="g48"
       transform="matrix(1.6385156,0,0,1.5958342,69.672196,931.81673)"><path
         d="m 0,0 -17.86,-21.62 -5.9,-7.151 H -29 v 29 H 0.19 Z"
         style="fill:#fde82e;fill-opacity:1;fill-rule:nonzero;stroke:none"
         id="path50" /></g><g
       id="g52"
       transform="matrix(1.6385156,0,0,1.5958342,316.38397,932.18298)"><path
         d="m 0,0 v -29 h -150.57 v 0.14 h -9.38 l 9.38,11.35 14.46,17.51 z"
         style="fill:#fde82e;fill-opacity:1;fill-rule:nonzero;stroke:none"
         id="path54" /></g><g
       id="g56"
       transform="matrix(1.6385156,0,0,1.5958342,316.38397,932.18298)"><path
         d="m 0,0 v -98.49 h -29 v 29 H -4.76 L -29,-61.89 V 0 Z"
         style="fill:#fde82e;fill-opacity:1;fill-rule:nonzero;stroke:none"
         id="path58" /></g><path
       d="M 22.155247,853.59803 H 69.672196 V 775.01118 H 22.155247 Z"
       style="fill:#fde82e;fill-opacity:1;fill-rule:nonzero;stroke:none;stroke-width:1.61703"
       id="path60" /><g
       id="g62"
       transform="matrix(1.6385156,0,0,1.5958342,284.23614,931.96004)"><path
         d="m 0,0 -9.38,-11.35 -14.46,-17.51 -33.45,-40.49 -23.96,-29 -18.28,-22.13 6.12,22.13 8.03,29 11.199,40.49 0.041,0.14 h -66.19 l 9.38,11.35 14.46,17.51 33.45,40.49 23.96,29 18.28,22.13 -6.12,-22.13 -8.02,-29 L -66.14,0.14 -66.181,0 Z"
         style="fill:#fde82e;fill-opacity:1;fill-rule:nonzero;stroke:none"
         id="path64" /></g></g></svg>
